<?xml version="1.0" encoding="utf-8"?>
<!-- Svg Vector Icons : http://www.onlinewebfonts.com/icon -->
<!DOCTYPE svg PUBLIC "-//W3C//DTD SVG 1.1//EN" "http://www.w3.org/Graphics/SVG/1.1/DTD/svg11.dtd">
<svg version="1.1" xmlns="http://www.w3.org/2000/svg" xmlns:xlink="http://www.w3.org/1999/xlink" x="0px" y="0px" viewBox="0 0 1000 1000" enable-background="new 0 0 1000 1000" xml:space="preserve">
<metadata> Svg Vector Icons : http://www.onlinewebfonts.com/icon </metadata>
<g><g transform="translate(0.000000,512.000000) scale(0.100000,-0.100000)"><path d="M4617.2,4998.8c-524.5-59.3-1075.8-271.8-1523.7-587.7c-371.4-262.3-777.2-708.3-1001.1-1100.7c-539.8-953.3-574.3-2094.1-88.1-3102.9c168.4-350.3,358-610.7,729.3-999.2c430.7-449.8,654.7-922.7,704.4-1495c9.6-112.9,19.1-547.5,19.1-964.8c1.9-417.3,7.7-773.3,13.4-790.6c21.1-53.6,114.9-86.1,254.6-86.1h135.9l229.7-306.3c126.3-166.5,246.9-313.9,266.1-325.4c40.2-21,1066.2-28.7,1119.8-7.7c15.3,5.8,134,153.1,264.2,325.4l235.4,313.9h147.4c128.2,0,155,5.7,201,45.9l53.6,45.9l11.5,878.6c11.5,867.1,11.5,878.6,61.3,1070c124.4,482.4,390.5,920.7,754.2,1246.2c802,715.9,1228.9,1808.9,1114.1,2854.1c-45.9,423-156.9,786.7-354.1,1171.5c-172.3,333.1-340.8,564.7-620.2,842.3c-289,289-514.9,453.7-869,631.7C5882.5,4956.7,5260.4,5071.6,4617.2,4998.8z M5344.6,4677.2c614.5-70.8,1140.9-296.7,1611.8-691c1093-918.8,1378.2-2565.1,660.4-3815c-145.5-254.6-304.4-447.9-614.5-758c-327.3-325.4-467.1-507.3-624.1-807.8c-160.8-310.1-258.4-624-306.3-995.4l-11.5-91.9h-488.1h-486.2v983.9v982l91.9,34.4c363.7,137.8,606.8,534.1,541.7,884.4c-76.6,417.3-447.9,715.9-855.7,691c-283.3-19.2-551.3-210.6-683.4-488.1c-55.5-118.7-61.3-145.5-61.3-321.6c0-176.1,5.7-201,63.2-323.5c82.3-178,256.5-348.4,430.7-423l128.3-55.5v-982v-982h-478.6c-262.2,0-478.6,3.8-478.6,7.6c0,3.8-9.6,95.7-19.1,204.8c-67,658.5-323.5,1204.1-804,1711.3c-365.6,384.7-501.5,568.5-666.1,901.6c-472.8,951.4-396.2,2128.6,197.2,3013C3122.2,4296.3,4221,4805.5,5344.6,4677.2z M5155.1,718.6c162.7-82.3,245-229.7,245-434.5c0-202.9-82.3-352.2-241.2-432.6l-72.8-36.4V64c0,325.4-26.8,382.9-172.3,382.9c-30.6,0-78.5-21.1-109.1-46c-53.6-45.9-53.6-47.9-59.3-306.3c-5.8-181.8-13.4-260.3-30.6-260.3c-47.9,0-166.5,101.5-214.4,183.8c-42.1,70.8-53.6,120.6-61.3,239.3c-7.7,134-3.8,160.8,44,256.5c53.6,112.9,137.8,189.5,252.7,231.6C4839.3,783.7,5055.6,770.3,5155.1,718.6z M6062.5-2979.6v-153.1H4923.5h-1139v153.1v153.1h1139h1138.9V-2979.6z M6062.5-3640v-162.7H4923.5h-1139v162.7v162.7h1139h1138.9V-3640z M5522.7-4189.4c-26.8-34.4-80.4-109.1-120.6-162.7l-74.6-101.4h-407.7h-405.8l-116.8,151.2c-63.2,84.2-114.9,157-114.9,162.7c0,5.7,289.1,11.5,643.2,11.5h643.2L5522.7-4189.4z"/></g></g>
</svg>